<?xml version="1.0" encoding="UTF-8" standalone="no"?>
<!-- Created with Inkscape (http://www.inkscape.org/) -->

<svg
   xmlns:dc="http://purl.org/dc/elements/1.1/"
   xmlns:cc="http://creativecommons.org/ns#"
   xmlns:rdf="http://www.w3.org/1999/02/22-rdf-syntax-ns#"
   xmlns:svg="http://www.w3.org/2000/svg"
   xmlns="http://www.w3.org/2000/svg"
   xmlns:xlink="http://www.w3.org/1999/xlink"
   xmlns:sodipodi="http://sodipodi.sourceforge.net/DTD/sodipodi-0.dtd"
   xmlns:inkscape="http://www.inkscape.org/namespaces/inkscape"
   version="1.1"
   width="24"
   height="24"
   id="svg10994"
   inkscape:version="0.91 r13725"
   sodipodi:docname="folder-drag-accept.svg">
  <sodipodi:namedview
     pagecolor="#ffffff"
     bordercolor="#666666"
     borderopacity="1"
     objecttolerance="10"
     gridtolerance="10"
     guidetolerance="10"
     inkscape:pageopacity="0"
     inkscape:pageshadow="2"
     inkscape:window-width="1920"
     inkscape:window-height="1030"
     id="namedview56"
     showgrid="true"
     inkscape:zoom="19.666666"
     inkscape:cx="3.4210541"
     inkscape:cy="11.64146"
     inkscape:window-x="0"
     inkscape:window-y="0"
     inkscape:window-maximized="1"
     inkscape:current-layer="svg10994"
     showguides="true"
     inkscape:guide-bbox="true"
     inkscape:object-paths="true"
     inkscape:snap-intersection-paths="true"
     inkscape:object-nodes="true"
     inkscape:snap-smooth-nodes="true">
    <inkscape:grid
       type="xygrid"
       id="grid3141" />
    <sodipodi:guide
       orientation="0,1"
       position="3,16"
       id="guide3222" />
  </sodipodi:namedview>
  <defs
     id="defs10996">
    <linearGradient
       id="linearGradient3782">
      <stop
         id="stop3784"
         offset="0"
         style="stop-color:#ffffff;stop-opacity:1;" />
      <stop
         id="stop3786"
         offset="1"
         style="stop-color:#e4e5e7;stop-opacity:1;" />
    </linearGradient>
    <linearGradient
       id="linearGradient3927-2">
      <stop
         style="stop-color:#f1f2f3;stop-opacity:1;"
         offset="0"
         id="stop3929-8" />
      <stop
         style="stop-color:#e4e5e7;stop-opacity:1;"
         offset="1"
         id="stop3931-8" />
    </linearGradient>
    <linearGradient
       inkscape:collect="always"
       xlink:href="#linearGradient3927-2"
       id="linearGradient3209"
       gradientUnits="userSpaceOnUse"
       gradientTransform="matrix(0.48648651,0,0,0.49434855,0.56468843,0.58734535)"
       x1="25"
       y1="16"
       x2="25"
       y2="39" />
    <linearGradient
       inkscape:collect="always"
       xlink:href="#linearGradient3782"
       id="linearGradient3212"
       gradientUnits="userSpaceOnUse"
       gradientTransform="matrix(0.5128205,0,0,0.56000004,-1.5897432,-7.1200001)"
       x1="25"
       y1="27"
       x2="25"
       y2="52" />
    <linearGradient
       id="linearGradient3788-9">
      <stop
         style="stop-color:#000000;stop-opacity:0.50980395;"
         offset="0"
         id="stop3790-5" />
      <stop
         style="stop-color:#000000;stop-opacity:0.39215687;"
         offset="1"
         id="stop3792-0" />
    </linearGradient>
  </defs>
  <metadata
     id="metadata10999">
    <rdf:RDF>
      <cc:Work
         rdf:about="">
        <dc:format>image/svg+xml</dc:format>
        <dc:type
           rdf:resource="http://purl.org/dc/dcmitype/StillImage" />
        <dc:title />
      </cc:Work>
    </rdf:RDF>
  </metadata>
  <g
     id="g4183">
    <path
       id="rect3967-9-5"
       d="M 6,1 C 4.892,1 4,1.892 4,3 2.892,3 3,3.892 3,5 l 0,5 c 0,1.108 0.892,2 2,2 l 14,0 c 1.108,0 2,-0.892 2,-2 L 21,5 C 21,3.892 20.108,3 19,3 L 11,3 C 11,1.892 10.108,1 9,1 Z"
       style="fill:#333333;fill-opacity:1;stroke:#000000;stroke-width:0;stroke-miterlimit:4;stroke-dasharray:none;stroke-opacity:1"
       inkscape:connector-curvature="0"
       sodipodi:nodetypes="scssssssscss" />
    <rect
       ry="1"
       y="4"
       x="4"
       height="7"
       width="16"
       id="rect3969-1"
       style="fill:#8b8b8d;fill-opacity:1;stroke:#000000;stroke-width:0;stroke-miterlimit:4;stroke-dasharray:none;stroke-opacity:1" />
    <path
       sodipodi:nodetypes="ccscssc"
       inkscape:connector-curvature="0"
       id="rect3011-5-3"
       d="m 10,4 0,1 9,0 c 0.554,0 1,0.446 1,1 L 20,5 C 20,4.446 19.554,4 19,4 Z"
       style="display:inline;opacity:0.15;fill:#ffffff;fill-opacity:1;stroke:#767779;stroke-width:0;stroke-linecap:butt;stroke-linejoin:miter;stroke-miterlimit:4;stroke-dasharray:none;stroke-dashoffset:0;stroke-opacity:1" />
    <rect
       ry="1"
       rx="1"
       y="2"
       x="5"
       height="3"
       width="5"
       id="rect3101-7"
       style="fill:#8b8b8d;fill-opacity:1;stroke:#767779;stroke-width:0;stroke-linecap:butt;stroke-linejoin:miter;stroke-miterlimit:4;stroke-dasharray:none;stroke-dashoffset:0;stroke-opacity:1" />
    <path
       sodipodi:nodetypes="ccscc"
       inkscape:connector-curvature="0"
       id="rect3011-5-0-2"
       d="M 5,5 C 4.446,5 4,5.446 4,6 L 4,5 C 4,4.446 4.446,4 5,4 Z"
       style="display:inline;opacity:0.15;fill:#ffffff;fill-opacity:1;stroke:#767779;stroke-width:0;stroke-linecap:butt;stroke-linejoin:miter;stroke-miterlimit:4;stroke-dasharray:none;stroke-dashoffset:0;stroke-opacity:1" />
    <path
       sodipodi:nodetypes="sscsscsss"
       inkscape:connector-curvature="0"
       id="rect3011-2"
       d="M 6,2 C 5.446,2 5,2.446 5,3 L 5,4 C 5,3.446 5.446,3 6,3 l 3,0 c 0.554,0 1,0.446 1,1 L 10,3 C 10,2.446 9.554,2 9,2 Z"
       style="display:inline;opacity:0.15;fill:#ffffff;fill-opacity:1;stroke:#767779;stroke-width:0;stroke-linecap:butt;stroke-linejoin:miter;stroke-miterlimit:4;stroke-dasharray:none;stroke-dashoffset:0;stroke-opacity:1" />
  </g>
  <path
     style="fill:#4d4d4d;fill-opacity:1;stroke:#000000;stroke-width:0;stroke-miterlimit:4;stroke-opacity:1"
     d="m 2,7 20,0 c 1.108,0 2.122358,1.1061868 2,2.4615381 L 23,20.538462 C 22.877642,21.893813 22.108,23 21,23 L 3,23 C 1.892,23 1.1223581,21.893813 1,20.538462 L 0,9.4615381 C -0.12235813,8.1061868 0.892,7 2,7 Z"
     id="rect3915"
     inkscape:connector-curvature="0"
     sodipodi:nodetypes="sssssssss" />
  <path
     style="fill:url(#linearGradient3212);fill-opacity:1;stroke:#000000;stroke-width:0;stroke-miterlimit:4;stroke-opacity:1"
     d="m 2,8 20,0 c 0.554,0 1.061179,0.5719488 1,1.2727269 L 22,20.727273 C 21.93882,21.428051 21.554,22 21,22 L 3,22 C 2.446,22 2.0611791,21.428051 2,20.727273 L 1,9.2727269 C 0.93882093,8.5719488 1.446,8 2,8 Z"
     id="rect3957"
     inkscape:connector-curvature="0"
     sodipodi:nodetypes="sssssssss" />
  <path
     style="fill:url(#linearGradient3209);fill-opacity:1;stroke:#000000;stroke-width:0;stroke-miterlimit:4;stroke-opacity:1"
     d="m 1.9971205,8.4969218 20.0000005,0 -1,11.3700182 -18.0000005,0 z"
     id="rect3925"
     inkscape:connector-curvature="0"
     sodipodi:nodetypes="ccccc" />
</svg>
