<?xml version="1.0" encoding="UTF-8" standalone="no"?>
<!-- Created with Inkscape (http://www.inkscape.org/) -->

<svg
   xmlns:dc="http://purl.org/dc/elements/1.1/"
   xmlns:cc="http://creativecommons.org/ns#"
   xmlns:rdf="http://www.w3.org/1999/02/22-rdf-syntax-ns#"
   xmlns:svg="http://www.w3.org/2000/svg"
   xmlns="http://www.w3.org/2000/svg"
   xmlns:xlink="http://www.w3.org/1999/xlink"
   xmlns:sodipodi="http://sodipodi.sourceforge.net/DTD/sodipodi-0.dtd"
   xmlns:inkscape="http://www.inkscape.org/namespaces/inkscape"
   version="1.1"
   width="24"
   height="24"
   id="svg10994"
   inkscape:version="0.91 r13725"
   sodipodi:docname="gtk-network.svg">
  <sodipodi:namedview
     pagecolor="#ffffff"
     bordercolor="#666666"
     borderopacity="1"
     objecttolerance="10"
     gridtolerance="10"
     guidetolerance="10"
     inkscape:pageopacity="0"
     inkscape:pageshadow="2"
     inkscape:window-width="1920"
     inkscape:window-height="1030"
     id="namedview56"
     showgrid="true"
     inkscape:zoom="31.999998"
     inkscape:cx="19.400422"
     inkscape:cy="11.336214"
     inkscape:window-x="0"
     inkscape:window-y="0"
     inkscape:window-maximized="1"
     inkscape:current-layer="svg10994"
     showguides="false"
     inkscape:guide-bbox="true"
     inkscape:snap-bbox="true"
     inkscape:bbox-nodes="true"
     inkscape:object-paths="true"
     inkscape:snap-intersection-paths="true"
     inkscape:object-nodes="true"
     inkscape:snap-smooth-nodes="true">
    <inkscape:grid
       type="xygrid"
       id="grid3141" />
    <sodipodi:guide
       orientation="0,1"
       position="3,16"
       id="guide3222" />
  </sodipodi:namedview>
  <defs
     id="defs10996">
    <linearGradient
       id="linearGradient3782">
      <stop
         id="stop3784"
         offset="0"
         style="stop-color:#ffffff;stop-opacity:1;" />
      <stop
         id="stop3786"
         offset="1"
         style="stop-color:#e4e5e7;stop-opacity:1;" />
    </linearGradient>
    <linearGradient
       id="linearGradient3927-2">
      <stop
         style="stop-color:#f1f2f3;stop-opacity:1;"
         offset="0"
         id="stop3929-8" />
      <stop
         style="stop-color:#e4e5e7;stop-opacity:1;"
         offset="1"
         id="stop3931-8" />
    </linearGradient>
    <linearGradient
       id="linearGradient3788-9">
      <stop
         id="stop3790-5"
         offset="0"
         style="stop-color:#000000;stop-opacity:0.50980395;" />
      <stop
         id="stop3792-0"
         offset="1"
         style="stop-color:#000000;stop-opacity:0.39215687;" />
    </linearGradient>
    <linearGradient
       inkscape:collect="always"
       xlink:href="#linearGradient3782"
       id="linearGradient4213"
       gradientUnits="userSpaceOnUse"
       gradientTransform="matrix(0.51282021,0,0,0.63999958,-1.5897364,-11.27998)"
       x1="25"
       y1="27"
       x2="25"
       y2="52" />
    <linearGradient
       inkscape:collect="always"
       xlink:href="#linearGradient3927-2"
       id="linearGradient4215"
       gradientUnits="userSpaceOnUse"
       gradientTransform="matrix(0.50859939,0,0,0.60174177,0.04791737,-2.9031522)"
       x1="25"
       y1="16"
       x2="25"
       y2="39" />
  </defs>
  <metadata
     id="metadata10999">
    <rdf:RDF>
      <cc:Work
         rdf:about="">
        <dc:format>image/svg+xml</dc:format>
        <dc:type
           rdf:resource="http://purl.org/dc/dcmitype/StillImage" />
        <dc:title></dc:title>
      </cc:Work>
    </rdf:RDF>
  </metadata>
  <g
     id="g4183">
    <path
       id="rect3967-9-5"
       d="M 6,1 C 4.892,1 4,1.892 4,3 2.892,3 3,3.892 3,5 l 0,5 c 0,1.108 0.892,2 2,2 l 14,0 c 1.108,0 2,-0.892 2,-2 L 21,5 C 21,3.892 20.108,3 19,3 L 11,3 C 11,1.892 10.108,1 9,1 Z"
       style="fill:#333333;fill-opacity:1;stroke:#000000;stroke-width:0;stroke-miterlimit:4;stroke-dasharray:none;stroke-opacity:1"
       inkscape:connector-curvature="0"
       sodipodi:nodetypes="scssssssscss" />
    <rect
       ry="1"
       y="4"
       x="4"
       height="7"
       width="16"
       id="rect3969-1"
       style="fill:#8b8b8d;fill-opacity:1;stroke:#000000;stroke-width:0;stroke-miterlimit:4;stroke-dasharray:none;stroke-opacity:1" />
    <path
       sodipodi:nodetypes="ccscssc"
       inkscape:connector-curvature="0"
       id="rect3011-5-3"
       d="m 10,4 0,1 9,0 c 0.554,0 1,0.446 1,1 L 20,5 C 20,4.446 19.554,4 19,4 Z"
       style="display:inline;opacity:0.15;fill:#ffffff;fill-opacity:1;stroke:#767779;stroke-width:0;stroke-linecap:butt;stroke-linejoin:miter;stroke-miterlimit:4;stroke-dasharray:none;stroke-dashoffset:0;stroke-opacity:1" />
    <rect
       ry="1"
       rx="1"
       y="2"
       x="5"
       height="3"
       width="5"
       id="rect3101-7"
       style="fill:#8b8b8d;fill-opacity:1;stroke:#767779;stroke-width:0;stroke-linecap:butt;stroke-linejoin:miter;stroke-miterlimit:4;stroke-dasharray:none;stroke-dashoffset:0;stroke-opacity:1" />
    <path
       sodipodi:nodetypes="ccscc"
       inkscape:connector-curvature="0"
       id="rect3011-5-0-2"
       d="M 5,5 C 4.446,5 4,5.446 4,6 L 4,5 C 4,4.446 4.446,4 5,4 Z"
       style="display:inline;opacity:0.15;fill:#ffffff;fill-opacity:1;stroke:#767779;stroke-width:0;stroke-linecap:butt;stroke-linejoin:miter;stroke-miterlimit:4;stroke-dasharray:none;stroke-dashoffset:0;stroke-opacity:1" />
    <path
       sodipodi:nodetypes="sscsscsss"
       inkscape:connector-curvature="0"
       id="rect3011-2"
       d="M 6,2 C 5.446,2 5,2.446 5,3 L 5,4 C 5,3.446 5.446,3 6,3 l 3,0 c 0.554,0 1,0.446 1,1 L 10,3 C 10,2.446 9.554,2 9,2 Z"
       style="display:inline;opacity:0.15;fill:#ffffff;fill-opacity:1;stroke:#767779;stroke-width:0;stroke-linecap:butt;stroke-linejoin:miter;stroke-miterlimit:4;stroke-dasharray:none;stroke-dashoffset:0;stroke-opacity:1" />
  </g>
  <rect
     style="fill:#4d4d4d;fill-opacity:1;stroke:#000000;stroke-width:0;stroke-miterlimit:4;stroke-dasharray:none;stroke-opacity:1"
     id="rect3915-5"
     width="21.99999"
     height="17.999989"
     x="1.0000049"
     y="5.0000048"
     rx="1.999999"
     ry="2.3999982" />
  <rect
     rx="0.99999952"
     style="fill:url(#linearGradient4213);fill-opacity:1;stroke:#000000;stroke-width:0;stroke-miterlimit:4;stroke-dasharray:none;stroke-opacity:1"
     id="rect3957-8"
     width="19.99999"
     height="15.99999"
     x="2.000005"
     y="6.0000052"
     ry="1.2307683" />
  <rect
     style="fill:url(#linearGradient4215);fill-opacity:1;stroke:#000000;stroke-width:0;stroke-miterlimit:4;stroke-dasharray:none;stroke-opacity:1"
     id="rect3925-0"
     width="18.818178"
     height="13.840061"
     x="2.5909138"
     y="6.7247152"
     rx="0"
     ry="0" />
  <g
     id="layer1-5"
     inkscape:label="Calque 1"
     transform="matrix(1,0,0,1.0817496,4,5.8555057)"
     style="fill:#575757;fill-opacity:1">
    <path
       inkscape:connector-curvature="0"
       id="path3909"
       d="M 8,2 C 4.8812155,2 2.0438333,3.3284272 0,5.5 L 1.3529412,6.9375 C 3.0561357,5.1278558 5.4010136,4 8,4 c 2.598986,0 4.943864,1.1278558 6.647059,2.9375 L 16,5.5 C 13.956167,3.3284272 11.118784,2 8,2 Z M 8,5 C 5.6609119,5 3.532875,5.9963203 2,7.625 L 3.3529412,9.0625 C 4.5451773,7.7957491 6.1807092,7 8,7 9.8192908,7 11.454823,7.7957491 12.647059,9.0625 L 14,7.625 C 12.467125,5.9963203 10.339088,5 8,5 Z M 8,8 C 6.4406076,8 5.0219166,8.6642136 4,9.75 l 1.3235294,1.40625 C 6.0048072,10.432392 6.9604053,10 8,10 c 1.0395948,0 1.9951925,0.432392 2.676471,1.15625 L 12,9.75 C 10.978084,8.6642136 9.5593925,8 8,8 Z m 0,3 C 7.2203039,11 6.5109583,11.332107 6,11.875 L 8,14 10,11.875 C 9.4890417,11.332107 8.7796961,11 8,11 Z"
       style="color:#000000;display:inline;overflow:visible;visibility:visible;fill:#575757;fill-opacity:1;fill-rule:nonzero;stroke:none;stroke-width:1.5;marker:none;enable-background:accumulate" />
  </g>
</svg>
