<?xml version="1.0" encoding="UTF-8" standalone="no"?>
<!-- Created with Inkscape (http://www.inkscape.org/) -->

<svg
   xmlns:dc="http://purl.org/dc/elements/1.1/"
   xmlns:cc="http://creativecommons.org/ns#"
   xmlns:rdf="http://www.w3.org/1999/02/22-rdf-syntax-ns#"
   xmlns:svg="http://www.w3.org/2000/svg"
   xmlns="http://www.w3.org/2000/svg"
   xmlns:xlink="http://www.w3.org/1999/xlink"
   xmlns:sodipodi="http://sodipodi.sourceforge.net/DTD/sodipodi-0.dtd"
   xmlns:inkscape="http://www.inkscape.org/namespaces/inkscape"
   width="16px"
   height="16px"
   id="svg8860"
   version="1.1"
   inkscape:version="0.91 r13725"
   sodipodi:docname="folder-remote.svg">
  <defs
     id="defs8862">
    <linearGradient
       id="linearGradient3927-2">
      <stop
         id="stop3929-8"
         offset="0"
         style="stop-color:#f1f2f3;stop-opacity:1;" />
      <stop
         id="stop3931-8"
         offset="1"
         style="stop-color:#e4e5e7;stop-opacity:1;" />
    </linearGradient>
    <linearGradient
       id="linearGradient3782">
      <stop
         style="stop-color:#ffffff;stop-opacity:1;"
         offset="0"
         id="stop3784" />
      <stop
         style="stop-color:#e4e5e7;stop-opacity:1;"
         offset="1"
         id="stop3786" />
    </linearGradient>
    <linearGradient
       id="linearGradient3788">
      <stop
         id="stop3790"
         offset="0"
         style="stop-color:#58595c;stop-opacity:1;" />
      <stop
         id="stop3792"
         offset="1"
         style="stop-color:#8a8b8f;stop-opacity:1;" />
    </linearGradient>
    <linearGradient
       inkscape:collect="always"
       xlink:href="#linearGradient3927-2"
       id="linearGradient3377"
       gradientUnits="userSpaceOnUse"
       gradientTransform="matrix(0.32432433,0,0,0.34377476,0.37837928,-0.07506176)"
       x1="25"
       y1="16"
       x2="25"
       y2="39" />
    <linearGradient
       inkscape:collect="always"
       xlink:href="#linearGradient3782"
       id="linearGradient3380"
       gradientUnits="userSpaceOnUse"
       gradientTransform="matrix(0.35897433,0,0,0.44087405,-1.5128193,-7.9006315)"
       x1="25"
       y1="27"
       x2="25"
       y2="52" />
    <linearGradient
       id="linearGradient3788-9">
      <stop
         style="stop-color:#000000;stop-opacity:0.50980395;"
         offset="0"
         id="stop3790-5" />
      <stop
         style="stop-color:#000000;stop-opacity:0.39215687;"
         offset="1"
         id="stop3792-0" />
    </linearGradient>
    <linearGradient
       y2="13.1"
       x2="23.5"
       y1="11.033334"
       x1="23.5"
       gradientTransform="matrix(0.48888887,0,0,0.48387095,0.5111116,1.1612907)"
       gradientUnits="userSpaceOnUse"
       id="linearGradient3215"
       xlink:href="#linearGradient3788-9"
       inkscape:collect="always" />
    <linearGradient
       y2="52"
       x2="25"
       y1="27"
       x1="25"
       gradientTransform="matrix(0.5128205,0,0,0.52,-1.5897432,-7.0399993)"
       gradientUnits="userSpaceOnUse"
       id="linearGradient3212"
       xlink:href="#linearGradient3782-0"
       inkscape:collect="always" />
    <linearGradient
       y2="39"
       x2="25"
       y1="16"
       x1="25"
       gradientTransform="matrix(0.48648651,0,0,0.47826084,0.5675679,0.347826)"
       gradientUnits="userSpaceOnUse"
       id="linearGradient3209"
       xlink:href="#linearGradient3927-2-1"
       inkscape:collect="always" />
    <linearGradient
       y2="9"
       x2="22"
       y1="11"
       x1="22"
       gradientTransform="matrix(0.44999999,0,0,0.5,1.2000007,0.50000037)"
       gradientUnits="userSpaceOnUse"
       id="linearGradient3206"
       xlink:href="#linearGradient3829-6"
       inkscape:collect="always" />
    <linearGradient
       id="linearGradient3927-2-1">
      <stop
         id="stop3929-8-7"
         offset="0"
         style="stop-color:#f1f2f3;stop-opacity:1;" />
      <stop
         id="stop3931-8-6"
         offset="1"
         style="stop-color:#e4e5e7;stop-opacity:1;" />
    </linearGradient>
    <linearGradient
       id="linearGradient3782-0">
      <stop
         style="stop-color:#ffffff;stop-opacity:1;"
         offset="0"
         id="stop3784-5" />
      <stop
         style="stop-color:#e4e5e7;stop-opacity:1;"
         offset="1"
         id="stop3786-8" />
    </linearGradient>
    <linearGradient
       id="linearGradient3829-6"
       inkscape:collect="always">
      <stop
         id="stop3831-9"
         offset="0"
         style="stop-color:#000000;stop-opacity:1;" />
      <stop
         id="stop3833-8"
         offset="1"
         style="stop-color:#000000;stop-opacity:0;" />
    </linearGradient>
  </defs>
  <sodipodi:namedview
     id="base"
     pagecolor="#ffffff"
     bordercolor="#666666"
     borderopacity="1.0"
     inkscape:pageopacity="0.0"
     inkscape:pageshadow="2"
     inkscape:zoom="44.395605"
     inkscape:cx="-0.99318406"
     inkscape:cy="8.5406711"
     inkscape:current-layer="layer1"
     showgrid="true"
     inkscape:grid-bbox="true"
     inkscape:document-units="px"
     inkscape:window-width="1920"
     inkscape:window-height="1030"
     inkscape:window-x="0"
     inkscape:window-y="0"
     inkscape:window-maximized="1"
     inkscape:snap-bbox="true">
    <inkscape:grid
       type="xygrid"
       id="grid3075" />
  </sodipodi:namedview>
  <metadata
     id="metadata8865">
    <rdf:RDF>
      <cc:Work
         rdf:about="">
        <dc:format>image/svg+xml</dc:format>
        <dc:type
           rdf:resource="http://purl.org/dc/dcmitype/StillImage" />
        <dc:title />
      </cc:Work>
    </rdf:RDF>
  </metadata>
  <g
     id="layer1"
     inkscape:label="Layer 1"
     inkscape:groupmode="layer">
    <path
       style="fill:#333333;fill-opacity:1;stroke:#000000;stroke-width:0;stroke-miterlimit:4;stroke-dasharray:none;stroke-opacity:1"
       d="m 3.0000002,-0.08118788 c -0.554,0 -1,0.48850284 -1,1.09529778 -0.554,0 -1,0.488503 -1,1.0952979 l 0,7.6670852 c 0,0.606795 0.446,1.095298 1,1.095298 l 11.9999998,0 c 0.554,0 1,-0.488503 1,-1.095298 L 15,2.1094078 C 15,1.5026129 14.554,1.0141099 14,1.0141099 l -7,0 C 7,0.40731496 6.554,-0.08118788 6,-0.08118788 l -2.9999998,0 z"
       id="rect3967"
       inkscape:connector-curvature="0" />
    <rect
       style="fill:#8b8b8d;fill-opacity:1;stroke:#000000;stroke-width:0;stroke-miterlimit:4;stroke-dasharray:none;stroke-opacity:1"
       id="rect3969"
       width="12"
       height="7.8653026"
       x="2.0000002"
       y="1.9472297"
       ry="0" />
    <path
       sodipodi:nodetypes="ccccccc"
       inkscape:connector-curvature="0"
       id="rect3945"
       d="m 5.9999993,1.0005958 0,1.3971281 0,0 -2.9999985,0 0,0 0,-1.3971281 z"
       style="fill:#8b8b8d;fill-opacity:1;stroke:#000000;stroke-width:0;stroke-miterlimit:4;stroke-opacity:1" />
    <rect
       style="fill:#4d4d4d;fill-opacity:1;stroke:#000000;stroke-width:0;stroke-miterlimit:4;stroke-dasharray:none;stroke-opacity:1"
       id="rect3915"
       width="16"
       height="13.010647"
       x="4.2481682e-07"
       y="3.0085704"
       rx="2"
       ry="2.3655722" />
    <rect
       rx="1"
       style="fill:url(#linearGradient3380);fill-opacity:1;stroke:#000000;stroke-width:0;stroke-miterlimit:4;stroke-dasharray:none;stroke-opacity:1"
       id="rect3957"
       width="14"
       height="11.021853"
       x="1.0000005"
       y="4.0029678"
       ry="1.2246503" />
    <rect
       style="fill:url(#linearGradient3377);fill-opacity:1;stroke:#000000;stroke-width:0;stroke-miterlimit:4;stroke-dasharray:none;stroke-opacity:1"
       id="rect3925"
       width="12"
       height="7.9068198"
       x="2"
       y="5.4253345"
       rx="0"
       ry="0" />
    <g
       id="layer1-5"
       inkscape:label="Calque 1"
       transform="matrix(0.745658,0,0,0.745658,2.0308584,3.5573414)"
       style="fill:#4d4d4d;fill-opacity:1">
      <path
         inkscape:connector-curvature="0"
         id="path3909"
         d="M 8,2 C 4.8812155,2 2.0438333,3.3284272 0,5.5 L 1.3529412,6.9375 C 3.0561357,5.1278558 5.4010136,4 8,4 c 2.598986,0 4.943864,1.1278558 6.647059,2.9375 L 16,5.5 C 13.956167,3.3284272 11.118784,2 8,2 Z M 8,5 C 5.6609119,5 3.532875,5.9963203 2,7.625 L 3.3529412,9.0625 C 4.5451773,7.7957491 6.1807092,7 8,7 9.8192908,7 11.454823,7.7957491 12.647059,9.0625 L 14,7.625 C 12.467125,5.9963203 10.339088,5 8,5 Z M 8,8 C 6.4406076,8 5.0219166,8.6642136 4,9.75 l 1.3235294,1.40625 C 6.0048072,10.432392 6.9604053,10 8,10 c 1.0395948,0 1.9951925,0.432392 2.676471,1.15625 L 12,9.75 C 10.978084,8.6642136 9.5593925,8 8,8 Z m 0,3 C 7.2203039,11 6.5109583,11.332107 6,11.875 L 8,14 10,11.875 C 9.4890417,11.332107 8.7796961,11 8,11 Z"
         style="color:#000000;display:inline;overflow:visible;visibility:visible;fill:#4d4d4d;fill-opacity:1;fill-rule:nonzero;stroke:none;stroke-width:1.5;marker:none;enable-background:accumulate" />
    </g>
  </g>
</svg>
