<?xml version="1.0" encoding="UTF-8" standalone="no"?>
<!-- Created with Inkscape (http://www.inkscape.org/) -->

<svg
   xmlns:dc="http://purl.org/dc/elements/1.1/"
   xmlns:cc="http://creativecommons.org/ns#"
   xmlns:rdf="http://www.w3.org/1999/02/22-rdf-syntax-ns#"
   xmlns:svg="http://www.w3.org/2000/svg"
   xmlns="http://www.w3.org/2000/svg"
   xmlns:xlink="http://www.w3.org/1999/xlink"
   xmlns:sodipodi="http://sodipodi.sourceforge.net/DTD/sodipodi-0.dtd"
   xmlns:inkscape="http://www.inkscape.org/namespaces/inkscape"
   width="16px"
   height="16px"
   id="svg8860"
   version="1.1"
   inkscape:version="0.91 r"
   sodipodi:docname="folder-videos.svg">
  <defs
     id="defs8862">
    <linearGradient
       id="linearGradient3927-2">
      <stop
         id="stop3929-8"
         offset="0"
         style="stop-color:#f1f2f3;stop-opacity:1;" />
      <stop
         id="stop3931-8"
         offset="1"
         style="stop-color:#e4e5e7;stop-opacity:1;" />
    </linearGradient>
    <linearGradient
       id="linearGradient3782">
      <stop
         style="stop-color:#ffffff;stop-opacity:1;"
         offset="0"
         id="stop3784" />
      <stop
         style="stop-color:#e4e5e7;stop-opacity:1;"
         offset="1"
         id="stop3786" />
    </linearGradient>
    <linearGradient
       id="linearGradient3788">
      <stop
         id="stop3790"
         offset="0"
         style="stop-color:#58595c;stop-opacity:1;" />
      <stop
         id="stop3792"
         offset="1"
         style="stop-color:#8a8b8f;stop-opacity:1;" />
    </linearGradient>
    <linearGradient
       id="linearGradient3829"
       inkscape:collect="always">
      <stop
         id="stop3831"
         offset="0"
         style="stop-color:#000000;stop-opacity:1;" />
      <stop
         id="stop3833"
         offset="1"
         style="stop-color:#000000;stop-opacity:0;" />
    </linearGradient>
    <linearGradient
       inkscape:collect="always"
       xlink:href="#linearGradient3829"
       id="linearGradient3374"
       gradientUnits="userSpaceOnUse"
       gradientTransform="matrix(0.34999999,0,0,0.52962914,-0.3999991,-2.3689371)"
       x1="22"
       y1="11"
       x2="22"
       y2="9" />
    <linearGradient
       inkscape:collect="always"
       xlink:href="#linearGradient3927-2"
       id="linearGradient3377"
       gradientUnits="userSpaceOnUse"
       gradientTransform="matrix(0.32432433,0,0,0.34377476,0.37837928,-0.07506176)"
       x1="25"
       y1="16"
       x2="25"
       y2="39" />
    <linearGradient
       inkscape:collect="always"
       xlink:href="#linearGradient3782"
       id="linearGradient3380"
       gradientUnits="userSpaceOnUse"
       gradientTransform="matrix(0.35897434,0,0,0.40663644,-1.5128196,-6.6833945)"
       x1="25"
       y1="27"
       x2="25"
       y2="52" />
    <linearGradient
       inkscape:collect="always"
       xlink:href="#linearGradient3788-9"
       id="linearGradient3383"
       gradientUnits="userSpaceOnUse"
       gradientTransform="matrix(0.35555553,0,0,0.40080651,-0.35555456,-0.84182178)"
       x1="23.5"
       y1="12.818182"
       x2="23.5"
       y2="15.636364" />
    <linearGradient
       id="linearGradient3788-9">
      <stop
         style="stop-color:#000000;stop-opacity:0.50980395;"
         offset="0"
         id="stop3790-5" />
      <stop
         style="stop-color:#000000;stop-opacity:0.39215687;"
         offset="1"
         id="stop3792-0" />
    </linearGradient>
    <linearGradient
       y2="13.1"
       x2="23.5"
       y1="11.033334"
       x1="23.5"
       gradientTransform="matrix(0.48888887,0,0,0.48387095,0.5111116,1.1612907)"
       gradientUnits="userSpaceOnUse"
       id="linearGradient3215"
       xlink:href="#linearGradient3788-9"
       inkscape:collect="always" />
    <linearGradient
       y2="52"
       x2="25"
       y1="27"
       x1="25"
       gradientTransform="matrix(0.5128205,0,0,0.52,-1.5897432,-7.0399993)"
       gradientUnits="userSpaceOnUse"
       id="linearGradient3212"
       xlink:href="#linearGradient3782-0"
       inkscape:collect="always" />
    <linearGradient
       y2="39"
       x2="25"
       y1="16"
       x1="25"
       gradientTransform="matrix(0.48648651,0,0,0.47826084,0.5675679,0.347826)"
       gradientUnits="userSpaceOnUse"
       id="linearGradient3209"
       xlink:href="#linearGradient3927-2-1"
       inkscape:collect="always" />
    <linearGradient
       y2="9"
       x2="22"
       y1="11"
       x1="22"
       gradientTransform="matrix(0.44999999,0,0,0.5,1.2000007,0.50000037)"
       gradientUnits="userSpaceOnUse"
       id="linearGradient3206"
       xlink:href="#linearGradient3829-6"
       inkscape:collect="always" />
    <linearGradient
       id="linearGradient3927-2-1">
      <stop
         id="stop3929-8-7"
         offset="0"
         style="stop-color:#f1f2f3;stop-opacity:1;" />
      <stop
         id="stop3931-8-6"
         offset="1"
         style="stop-color:#e4e5e7;stop-opacity:1;" />
    </linearGradient>
    <linearGradient
       id="linearGradient3782-0">
      <stop
         style="stop-color:#ffffff;stop-opacity:1;"
         offset="0"
         id="stop3784-5" />
      <stop
         style="stop-color:#e4e5e7;stop-opacity:1;"
         offset="1"
         id="stop3786-8" />
    </linearGradient>
    <linearGradient
       id="linearGradient3829-6"
       inkscape:collect="always">
      <stop
         id="stop3831-9"
         offset="0"
         style="stop-color:#000000;stop-opacity:1;" />
      <stop
         id="stop3833-8"
         offset="1"
         style="stop-color:#000000;stop-opacity:0;" />
    </linearGradient>
  </defs>
  <sodipodi:namedview
     id="base"
     pagecolor="#ffffff"
     bordercolor="#666666"
     borderopacity="1.0"
     inkscape:pageopacity="0.0"
     inkscape:pageshadow="2"
     inkscape:zoom="5.5494506"
     inkscape:cx="-12.295227"
     inkscape:cy="-17.021553"
     inkscape:current-layer="layer1"
     showgrid="true"
     inkscape:grid-bbox="true"
     inkscape:document-units="px"
     inkscape:window-width="1366"
     inkscape:window-height="715"
     inkscape:window-x="0"
     inkscape:window-y="0"
     inkscape:window-maximized="1"
     inkscape:snap-bbox="true">
    <inkscape:grid
       type="xygrid"
       id="grid3075" />
  </sodipodi:namedview>
  <metadata
     id="metadata8865">
    <rdf:RDF>
      <cc:Work
         rdf:about="">
        <dc:format>image/svg+xml</dc:format>
        <dc:type
           rdf:resource="http://purl.org/dc/dcmitype/StillImage" />
        <dc:title></dc:title>
      </cc:Work>
    </rdf:RDF>
  </metadata>
  <g
     id="layer1"
     inkscape:label="Layer 1"
     inkscape:groupmode="layer">
    <rect
       style="display:inline;opacity:0.07999998;fill:#000000;fill-opacity:1;stroke:#000000;stroke-width:0;stroke-miterlimit:4;stroke-dasharray:none;stroke-opacity:1"
       id="rect3915-0"
       width="16"
       height="12.425004"
       x="3.0886005e-07"
       y="4.2957897"
       rx="2"
       ry="2.2590916" />
    <path
       style="fill:#000000;fill-opacity:0.65882353;stroke:#000000;stroke-width:0;stroke-miterlimit:4;stroke-dasharray:none;stroke-opacity:1"
       d="m 3.0000001,0.27920807 c -0.554,0 -1,0.47242919 -1,1.05925823 -0.554,0 -1,0.4724293 -1,1.0592583 l 0,7.4148081 c 0,0.5868293 0.446,1.0592583 1,1.0592583 l 11.9999999,0 c 0.554,0 1,-0.472429 1,-1.0592583 L 15,2.3977246 C 15,1.8108956 14.554,1.3384663 14,1.3384663 l -7,0 C 7,0.75163726 6.554,0.27920807 6,0.27920807 l -2.9999999,0 z"
       id="rect3967"
       inkscape:connector-curvature="0" />
    <rect
       style="fill:#8b8b8d;fill-opacity:1;stroke:#000000;stroke-width:0;stroke-miterlimit:4;stroke-dasharray:none;stroke-opacity:1"
       id="rect3969"
       width="12"
       height="7.4148078"
       x="2"
       y="2.3977246"
       ry="0" />
    <rect
       style="opacity:0.15;fill:#ffffff;fill-opacity:1;stroke:#767779;stroke-width:0;stroke-linecap:butt;stroke-linejoin:miter;stroke-miterlimit:4;stroke-dasharray:none;stroke-dashoffset:0;stroke-opacity:1"
       id="rect3858"
       width="8"
       height="1.0592583"
       x="6"
       y="2.3977246" />
    <rect
       style="opacity:0.15;fill:#ffffff;fill-opacity:1;stroke:#767779;stroke-width:0;stroke-linecap:butt;stroke-linejoin:miter;stroke-miterlimit:4;stroke-dasharray:none;stroke-dashoffset:0;stroke-opacity:1"
       id="rect3856"
       width="1"
       height="1.0592583"
       x="2"
       y="2.3977246" />
    <path
       sodipodi:nodetypes="ccccccc"
       inkscape:connector-curvature="0"
       id="rect3945"
       d="m 6,1.3384663 0,1.0592583 0,0 -2.9999999,0 0,0 0,-1.0592583 z"
       style="fill:#8b8b8d;fill-opacity:1;stroke:#000000;stroke-width:0;stroke-miterlimit:4;stroke-opacity:1" />
    <rect
       style="fill:url(#linearGradient3383);fill-opacity:1;stroke:#000000;stroke-width:0;stroke-miterlimit:4;stroke-dasharray:none;stroke-opacity:1"
       id="rect3915"
       width="16"
       height="12.425004"
       x="3.0886005e-07"
       y="3.1662436"
       rx="2"
       ry="2.2590916" />
    <rect
       rx="1"
       style="fill:url(#linearGradient3380);fill-opacity:1;stroke:#000000;stroke-width:0;stroke-miterlimit:4;stroke-dasharray:none;stroke-opacity:1"
       id="rect3957"
       width="14"
       height="10.165913"
       x="1.0000002"
       y="4.2957897"
       ry="1.1295458" />
    <rect
       style="fill:url(#linearGradient3377);fill-opacity:1;stroke:#000000;stroke-width:0;stroke-miterlimit:4;stroke-dasharray:none;stroke-opacity:1"
       id="rect3925"
       width="12"
       height="7.9068198"
       x="2"
       y="5.4253345"
       rx="0"
       ry="0" />
    <rect
       ry="0"
       y="2.3977246"
       x="1.0000001"
       height="1.0592583"
       width="14"
       id="rect3827"
       style="opacity:0.17300002;fill:url(#linearGradient3374);fill-opacity:1;stroke:#102b68;stroke-width:0;stroke-linecap:butt;stroke-linejoin:miter;stroke-miterlimit:4;stroke-dasharray:none;stroke-dashoffset:0;stroke-opacity:1" />
    <rect
       style="opacity:0.15;fill:#ffffff;fill-opacity:1;stroke:#767779;stroke-width:0;stroke-linecap:butt;stroke-linejoin:miter;stroke-miterlimit:4;stroke-dasharray:none;stroke-dashoffset:0;stroke-opacity:1"
       id="rect3086"
       width="3"
       height="1.0592583"
       x="3"
       y="1.3384664"
       ry="0" />
    <g
       id="g4272"
       transform="matrix(0.51412174,0,0,0.51412174,4.2938288,5.3433906)"
       style="fill:#575757;fill-opacity:1">
      <g
         style="display:inline;fill:#575757;fill-opacity:1"
         inkscape:label="status"
         id="layer9"
         transform="translate(-482,-176)" />
      <g
         inkscape:label="devices"
         id="layer10"
         transform="translate(-482,-176)"
         style="fill:#575757;fill-opacity:1" />
      <g
         inkscape:label="apps"
         id="layer11"
         transform="translate(-482,-176)"
         style="fill:#575757;fill-opacity:1" />
      <g
         inkscape:label="actions"
         id="layer12"
         transform="translate(-482,-176)"
         style="fill:#575757;fill-opacity:1" />
      <g
         inkscape:label="places"
         id="layer13"
         transform="translate(-482,-176)"
         style="fill:#575757;fill-opacity:1">
        <g
           inkscape:label="folder-remote"
           id="g40072"
           transform="translate(254.0002,-820)"
           style="fill:#575757;fill-opacity:1" />
        <path
           id="rect3057"
           transform="translate(482,176)"
           d="M 4,1 C 1.79086,1 0,2.79086 0,5 0,6.4792092 0.8062088,7.7454151 2,8.4375 L 2,9 1.5,9 C 1.223,9 1,9.223 1,9.5 l 0,1 C 1,10.777 1.223,11 1.5,11 l 0.5,0 0,3 c 0,0.554 0.446,1 1,1 l 9,0 c 0.554,0 1,-0.446 1,-1 l 0,-2.15625 2.5625,1.90625 a 0.26892414,0.26892414 0 0 0 0.0625,0.03125 0.26892414,0.26892414 0 0 0 0.15625,0 0.26892414,0.26892414 0 0 0 0.21875,-0.25 l 0,-6.0625 A 0.26892414,0.26892414 0 0 0 16,7.40625 0.26892414,0.26892414 0 0 0 15.9375,7.3125 0.26892414,0.26892414 0 0 0 15.875,7.25 0.26892414,0.26892414 0 0 0 15.6875,7.1875 0.26892414,0.26892414 0 0 0 15.5625,7.25 L 13,9.15625 13,8 C 13,7.8968039 12.966266,7.8122666 12.9375,7.71875 13.59652,7.0056546 14,6.0475508 14,5 14,2.79086 12.20914,1 10,1 8.806367,1 7.7328956,1.5146101 7,2.34375 6.2671044,1.5146101 5.193633,1 4,1 Z M 4,3.4375 C 4.86927,3.4375 5.5625,4.13073 5.5625,5 5.5625,5.86927 4.86927,6.5625 4,6.5625 3.13073,6.5625 2.4375,5.86927 2.4375,5 2.4375,4.13073 3.13073,3.4375 4,3.4375 Z m 6,0 c 0.86927,0 1.5625,0.69323 1.5625,1.5625 0,0.86927 -0.69323,1.5625 -1.5625,1.5625 C 9.13073,6.5625 8.4375,5.86927 8.4375,5 8.4375,4.13073 9.13073,3.4375 10,3.4375 Z"
           style="color:#000000;display:inline;overflow:visible;visibility:visible;fill:#575757;fill-opacity:1;fill-rule:nonzero;stroke:none;stroke-width:1;marker:none;enable-background:accumulate"
           inkscape:connector-curvature="0" />
      </g>
      <g
         inkscape:label="mimetypes"
         id="layer14"
         transform="translate(-482,-176)"
         style="fill:#575757;fill-opacity:1" />
      <g
         style="display:inline;fill:#575757;fill-opacity:1"
         inkscape:label="emblems"
         id="layer15"
         transform="translate(-482,-176)" />
    </g>
  </g>
</svg>
