<?xml version="1.0" encoding="UTF-8" standalone="no"?>
<!-- Created with Inkscape (http://www.inkscape.org/) -->

<svg
   xmlns:dc="http://purl.org/dc/elements/1.1/"
   xmlns:cc="http://creativecommons.org/ns#"
   xmlns:rdf="http://www.w3.org/1999/02/22-rdf-syntax-ns#"
   xmlns:svg="http://www.w3.org/2000/svg"
   xmlns="http://www.w3.org/2000/svg"
   xmlns:xlink="http://www.w3.org/1999/xlink"
   xmlns:sodipodi="http://sodipodi.sourceforge.net/DTD/sodipodi-0.dtd"
   xmlns:inkscape="http://www.inkscape.org/namespaces/inkscape"
   width="16px"
   height="16px"
   id="svg8860"
   version="1.1"
   inkscape:version="0.91 r13725"
   sodipodi:docname="folder-pictures.svg">
  <defs
     id="defs8862">
    <linearGradient
       id="linearGradient3927-2">
      <stop
         id="stop3929-8"
         offset="0"
         style="stop-color:#f1f2f3;stop-opacity:1;" />
      <stop
         id="stop3931-8"
         offset="1"
         style="stop-color:#e4e5e7;stop-opacity:1;" />
    </linearGradient>
    <linearGradient
       id="linearGradient3782">
      <stop
         style="stop-color:#ffffff;stop-opacity:1;"
         offset="0"
         id="stop3784" />
      <stop
         style="stop-color:#e4e5e7;stop-opacity:1;"
         offset="1"
         id="stop3786" />
    </linearGradient>
    <linearGradient
       id="linearGradient3788">
      <stop
         id="stop3790"
         offset="0"
         style="stop-color:#58595c;stop-opacity:1;" />
      <stop
         id="stop3792"
         offset="1"
         style="stop-color:#8a8b8f;stop-opacity:1;" />
    </linearGradient>
    <linearGradient
       inkscape:collect="always"
       xlink:href="#linearGradient3927-2"
       id="linearGradient3377"
       gradientUnits="userSpaceOnUse"
       gradientTransform="matrix(0.32432433,0,0,0.34377476,0.37837928,-0.07506176)"
       x1="25"
       y1="16"
       x2="25"
       y2="39" />
    <linearGradient
       inkscape:collect="always"
       xlink:href="#linearGradient3782"
       id="linearGradient3380"
       gradientUnits="userSpaceOnUse"
       gradientTransform="matrix(0.35897433,0,0,0.43997305,-1.5128193,-7.8537799)"
       x1="25"
       y1="27"
       x2="25"
       y2="52" />
    <linearGradient
       id="linearGradient3788-9">
      <stop
         style="stop-color:#000000;stop-opacity:0.50980395;"
         offset="0"
         id="stop3790-5" />
      <stop
         style="stop-color:#000000;stop-opacity:0.39215687;"
         offset="1"
         id="stop3792-0" />
    </linearGradient>
    <linearGradient
       y2="13.1"
       x2="23.5"
       y1="11.033334"
       x1="23.5"
       gradientTransform="matrix(0.48888887,0,0,0.48387095,0.5111116,1.1612907)"
       gradientUnits="userSpaceOnUse"
       id="linearGradient3215"
       xlink:href="#linearGradient3788-9"
       inkscape:collect="always" />
    <linearGradient
       y2="52"
       x2="25"
       y1="27"
       x1="25"
       gradientTransform="matrix(0.5128205,0,0,0.52,-1.5897432,-7.0399993)"
       gradientUnits="userSpaceOnUse"
       id="linearGradient3212"
       xlink:href="#linearGradient3782-0"
       inkscape:collect="always" />
    <linearGradient
       y2="39"
       x2="25"
       y1="16"
       x1="25"
       gradientTransform="matrix(0.48648651,0,0,0.47826084,0.5675679,0.347826)"
       gradientUnits="userSpaceOnUse"
       id="linearGradient3209"
       xlink:href="#linearGradient3927-2-1"
       inkscape:collect="always" />
    <linearGradient
       y2="9"
       x2="22"
       y1="11"
       x1="22"
       gradientTransform="matrix(0.44999999,0,0,0.5,1.2000007,0.50000037)"
       gradientUnits="userSpaceOnUse"
       id="linearGradient3206"
       xlink:href="#linearGradient3829-6"
       inkscape:collect="always" />
    <linearGradient
       id="linearGradient3927-2-1">
      <stop
         id="stop3929-8-7"
         offset="0"
         style="stop-color:#f1f2f3;stop-opacity:1;" />
      <stop
         id="stop3931-8-6"
         offset="1"
         style="stop-color:#e4e5e7;stop-opacity:1;" />
    </linearGradient>
    <linearGradient
       id="linearGradient3782-0">
      <stop
         style="stop-color:#ffffff;stop-opacity:1;"
         offset="0"
         id="stop3784-5" />
      <stop
         style="stop-color:#e4e5e7;stop-opacity:1;"
         offset="1"
         id="stop3786-8" />
    </linearGradient>
    <linearGradient
       id="linearGradient3829-6"
       inkscape:collect="always">
      <stop
         id="stop3831-9"
         offset="0"
         style="stop-color:#000000;stop-opacity:1;" />
      <stop
         id="stop3833-8"
         offset="1"
         style="stop-color:#000000;stop-opacity:0;" />
    </linearGradient>
  </defs>
  <sodipodi:namedview
     id="base"
     pagecolor="#ffffff"
     bordercolor="#666666"
     borderopacity="1.0"
     inkscape:pageopacity="0.0"
     inkscape:pageshadow="2"
     inkscape:zoom="44.395605"
     inkscape:cx="-0.40502376"
     inkscape:cy="6.9158586"
     inkscape:current-layer="layer1"
     showgrid="true"
     inkscape:grid-bbox="true"
     inkscape:document-units="px"
     inkscape:window-width="1920"
     inkscape:window-height="1030"
     inkscape:window-x="0"
     inkscape:window-y="0"
     inkscape:window-maximized="1"
     inkscape:snap-bbox="true">
    <inkscape:grid
       type="xygrid"
       id="grid3075" />
  </sodipodi:namedview>
  <metadata
     id="metadata8865">
    <rdf:RDF>
      <cc:Work
         rdf:about="">
        <dc:format>image/svg+xml</dc:format>
        <dc:type
           rdf:resource="http://purl.org/dc/dcmitype/StillImage" />
        <dc:title />
      </cc:Work>
    </rdf:RDF>
  </metadata>
  <g
     id="layer1"
     inkscape:label="Layer 1"
     inkscape:groupmode="layer">
    <path
       style="fill:#333333;fill-opacity:1;stroke:#000000;stroke-width:0;stroke-miterlimit:4;stroke-dasharray:none;stroke-opacity:1"
       d="m 3.0000001,0.00891111 c -0.5539999,0 -0.9999999,0.48448443 -0.9999999,1.08628789 -0.554,0 -1,0.4844846 -1,1.086288 l 0,7.6040159 c 0,0.6018041 0.446,1.0862881 1,1.0862881 l 11.9999998,0 c 0.554,0 1,-0.484484 1,-1.0862881 L 15,2.181487 C 15,1.5796836 14.554,1.095199 14,1.095199 l -7,0 C 7,0.49339554 6.554,0.00891111 6,0.00891111 l -2.9999999,0 z"
       id="rect3967"
       inkscape:connector-curvature="0" />
    <rect
       style="fill:#8b8b8d;fill-opacity:1;stroke:#000000;stroke-width:0;stroke-miterlimit:4;stroke-dasharray:none;stroke-opacity:1"
       id="rect3969"
       width="12"
       height="7.8202529"
       x="2.0000002"
       y="1.9922792"
       ry="0" />
    <path
       sodipodi:nodetypes="ccccccc"
       inkscape:connector-curvature="0"
       id="rect3945"
       d="m 5.9999993,1.0005958 0,1.3971281 0,0 -2.9999985,0 0,0 0,-1.3971281 z"
       style="fill:#8b8b8d;fill-opacity:1;stroke:#000000;stroke-width:0;stroke-miterlimit:4;stroke-opacity:1" />
    <rect
       style="fill:#4d4d4d;fill-opacity:1;stroke:#000000;stroke-width:0;stroke-miterlimit:4;stroke-dasharray:none;stroke-opacity:1"
       id="rect3915"
       width="16"
       height="13.010647"
       x="4.2480559e-07"
       y="3.0085704"
       rx="2"
       ry="2.3655722" />
    <rect
       rx="1"
       style="fill:url(#linearGradient3380);fill-opacity:1;stroke:#000000;stroke-width:0;stroke-miterlimit:4;stroke-dasharray:none;stroke-opacity:1"
       id="rect3957"
       width="14"
       height="10.999329"
       x="1.0000005"
       y="4.0254927"
       ry="1.2221475" />
    <rect
       style="fill:url(#linearGradient3377);fill-opacity:1;stroke:#000000;stroke-width:0;stroke-miterlimit:4;stroke-dasharray:none;stroke-opacity:1"
       id="rect3925"
       width="12"
       height="7.9068198"
       x="2"
       y="5.4253345"
       rx="0"
       ry="0" />
    <g
       id="g4460"
       transform="matrix(0.6227104,0,0,0.58242574,3.0150986,4.8631186)"
       style="fill:#4d4d4d;fill-opacity:1">
      <g
         style="display:inline;fill:#4d4d4d;fill-opacity:1"
         inkscape:label="status"
         id="layer9"
         transform="translate(-482,-176)" />
      <g
         inkscape:label="devices"
         id="layer10"
         transform="translate(-482,-176)"
         style="fill:#4d4d4d;fill-opacity:1" />
      <g
         inkscape:label="apps"
         id="layer11"
         transform="translate(-482,-176)"
         style="fill:#4d4d4d;fill-opacity:1" />
      <g
         inkscape:label="actions"
         id="layer12"
         transform="translate(-482,-176)"
         style="fill:#4d4d4d;fill-opacity:1" />
      <g
         inkscape:label="places"
         id="layer13"
         transform="translate(-482,-176)"
         style="fill:#4d4d4d;fill-opacity:1">
        <g
           inkscape:label="folder-remote"
           id="g40072"
           transform="translate(254.0002,-820)"
           style="fill:#4d4d4d;fill-opacity:1" />
        <path
           sodipodi:nodetypes="sscsssssssscsssssssssssssssssssssssssss"
           inkscape:connector-curvature="0"
           id="rect2997"
           d="m 484.5,177 c -0.277,0 -0.5,0.223 -0.5,0.5 l 0,0.5 -0.5,0 c -0.831,0 -1.5,0.669 -1.5,1.5 l 0,9 c 0,0.831 0.669,1.5 1.5,1.5 l 13,0 c 0.831,0 1.5,-0.669 1.5,-1.5 l 0,-9 c 0,-0.831 -0.669,-1.5 -1.5,-1.5 l -9.5,0 0,-0.5 c 0,-0.277 -0.223,-0.5 -0.5,-0.5 z m 0,2 2,0 c 0.277,0 0.5,0.223 0.5,0.5 l 0,1 c 0,0.277 -0.223,0.5 -0.5,0.5 l -2,0 c -0.277,0 -0.5,-0.223 -0.5,-0.5 l 0,-1 c 0,-0.277 0.223,-0.5 0.5,-0.5 z m 4,0 c 0.27614,0 0.5,0.22386 0.5,0.5 0,0.27614 -0.22386,0.5 -0.5,0.5 -0.27614,0 -0.5,-0.22386 -0.5,-0.5 0,-0.27614 0.22386,-0.5 0.5,-0.5 z m 4.5,1 c 2.20914,0 4,1.79086 4,4 0,2.20914 -1.79086,4 -4,4 -2.20914,0 -4,-1.79086 -4,-4 0,-2.20914 1.79086,-4 4,-4 z m 0,2 c -1.10457,0 -2,0.89543 -2,2 0,1.10457 0.89543,2 2,2 1.10457,0 2,-0.89543 2,-2 0,-1.10457 -0.89543,-2 -2,-2 z"
           style="color:#000000;display:inline;overflow:visible;visibility:visible;fill:#4d4d4d;fill-opacity:1;fill-rule:nonzero;stroke:none;stroke-width:1;marker:none;enable-background:accumulate" />
      </g>
      <g
         inkscape:label="mimetypes"
         id="layer14"
         transform="translate(-482,-176)"
         style="fill:#4d4d4d;fill-opacity:1" />
      <g
         style="display:inline;fill:#4d4d4d;fill-opacity:1"
         inkscape:label="emblems"
         id="layer15"
         transform="translate(-482,-176)" />
    </g>
  </g>
</svg>
