<?xml version="1.0" encoding="UTF-8" standalone="no"?>
<!-- Created with Inkscape (http://www.inkscape.org/) -->

<svg
   xmlns:dc="http://purl.org/dc/elements/1.1/"
   xmlns:cc="http://creativecommons.org/ns#"
   xmlns:rdf="http://www.w3.org/1999/02/22-rdf-syntax-ns#"
   xmlns:svg="http://www.w3.org/2000/svg"
   xmlns="http://www.w3.org/2000/svg"
   xmlns:sodipodi="http://sodipodi.sourceforge.net/DTD/sodipodi-0.dtd"
   xmlns:inkscape="http://www.inkscape.org/namespaces/inkscape"
   id="svg4222"
   height="16"
   width="16"
   version="1.1"
   viewBox="0 0 32 32.000001"
   inkscape:version="0.91 r13725"
   sodipodi:docname="user-desktop-16.svg">
  <defs
     id="defs12" />
  <sodipodi:namedview
     pagecolor="#ffffff"
     bordercolor="#666666"
     borderopacity="1"
     objecttolerance="10"
     gridtolerance="10"
     guidetolerance="10"
     inkscape:pageopacity="0"
     inkscape:pageshadow="2"
     inkscape:window-width="1920"
     inkscape:window-height="1030"
     id="namedview10"
     showgrid="false"
     inkscape:zoom="8.6599296"
     inkscape:cx="-41.931971"
     inkscape:cy="11.918975"
     inkscape:window-x="0"
     inkscape:window-y="0"
     inkscape:window-maximized="1"
     inkscape:current-layer="svg4222"
     fit-margin-top="-0.1" />
  <metadata
     id="metadata4227">
    <rdf:RDF>
      <cc:Work
         rdf:about="">
        <dc:format>image/svg+xml</dc:format>
        <dc:type
           rdf:resource="http://purl.org/dc/dcmitype/StillImage" />
        <dc:title></dc:title>
      </cc:Work>
    </rdf:RDF>
  </metadata>
  <path
     style="fill:#6ba4e7;fill-opacity:1"
     inkscape:connector-curvature="0"
     d="m 2.3833587,6.0475901 0,20.9999999 c 0,0.7756 0.6244,1.4 1.4,1.4 l 25.2000003,0 c 0.7756,0 1.4,-0.6244 1.4,-1.4 l 0,-20.9999999 z"
     id="rect4203"
     inkscape:transform-center-x="-2.0785389"
     inkscape:transform-center-y="-3.6808728" />
  <path
     style="fill:#383c4a"
     inkscape:connector-curvature="0"
     d="m 3.7833587,3.2475901 c -0.7756,0 -1.4,0.6244 -1.4,1.4 l 0,1.4 28.0000003,0 0,-1.4 c 0,-0.7756 -0.6244,-1.4 -1.4,-1.4 z"
     id="rect3328"
     inkscape:transform-center-x="-2.0785389"
     inkscape:transform-center-y="-16.280873" />
  <path
     style="opacity:0.1;fill:#ffffff"
     inkscape:connector-curvature="0"
     d="m 3.7833587,3.2475901 c -0.7756,0 -1.4,0.6244 -1.4,1.4 l 0,0.7 c 0,-0.7756 0.6244,-1.4 1.4,-1.4 l 25.2000003,0 c 0.7756,0 1.4,0.6244 1.4,1.4 l 0,-0.7 c 0,-0.7756 -0.6244,-1.4 -1.4,-1.4 z"
     id="path3345"
     inkscape:transform-center-x="-2.0785389"
     inkscape:transform-center-y="-16.630873" />
  <path
     style="fill:#383c4a"
     inkscape:connector-curvature="0"
     d="m 10.783359,25.64759 c -0.7756,0 -1.4000003,0.6244 -1.4000003,1.4 l 0,1.4 14.0000003,0 0,-1.4 c 0,-0.7756 -0.6244,-1.4 -1.4,-1.4 l -11.2,0 z"
     id="rect4155"
     inkscape:transform-center-x="-2.0785389"
     inkscape:transform-center-y="6.1191275" />
  <path
     style="opacity:0.3"
     inkscape:connector-curvature="0"
     d="m 2.3833587,26.34759 0,0.7 c 0,0.7756 0.6244,1.4 1.4,1.4 l 25.2000003,0 c 0.7756,0 1.4,-0.6244 1.4,-1.4 l 0,-0.7 c 0,0.7756 -0.6244,1.4 -1.4,1.4 l -25.2000003,0 c -0.7756,0 -1.4,-0.6244 -1.4,-1.4 z"
     id="path4148"
     inkscape:transform-center-x="-2.0785389"
     inkscape:transform-center-y="6.4691275" />
</svg>
